<svg version="1.1" id="Layer_1" xmlns="http://www.w3.org/2000/svg" xmlns:xlink="http://www.w3.org/1999/xlink" x="0px" y="0px"
	 width="100%" viewBox="0 0 232 357" enable-background="new 0 0 232 357" xml:space="preserve">
<path fill="none" opacity="1.000000" stroke="#000000" stroke-linecap="round" stroke-linejoin="round" stroke-width="4.000000"
	d="
M206.500000,341.000000 
	C210.497742,337.765747 211.414429,333.347137 211.519623,328.500427 
	C212.593933,279.004944 212.890060,229.500198 212.338852,180.001801 
	C212.175674,165.348114 212.352997,150.595657 210.416153,136.011139 
	C209.470276,128.888504 205.637360,122.790100 200.935944,117.557556 
	C190.376083,105.804771 186.043030,92.089355 186.450974,76.498718 
	C186.712463,66.505562 186.502487,56.500000 186.498993,46.500000 
	C186.497070,40.986172 186.452454,41.410072 181.000626,41.381531 
	C174.500809,41.347507 167.820663,42.831280 161.500000,40.000000 
"/>
<path fill="none" opacity="1.000000" stroke="#000000" stroke-linecap="round" stroke-linejoin="round" stroke-width="4.000000"
	d="
M156.500000,39.500000 
	C164.665649,36.737316 173.130554,37.788284 181.496460,37.419575 
	C184.821274,37.273045 187.003204,35.387672 186.536972,31.495571 
	C186.320465,29.688171 186.500000,27.833334 186.500000,26.000000 
	C186.500000,19.417749 186.243149,18.869856 179.496857,18.571144 
	C172.344208,18.254440 165.162659,18.359390 158.001831,18.563908 
	C154.793762,18.655533 152.265350,19.917179 152.442078,24.002506 
	C152.571289,26.989708 152.055405,29.998631 152.018463,33.000229 
	C151.813278,49.666420 151.844864,66.337601 151.445938,82.998703 
	C151.101349,97.390442 147.329666,110.453400 136.052734,120.558838 
	C129.800125,126.161896 127.410881,133.648804 127.481087,142.000153 
	C127.562340,151.666153 126.775528,161.406158 127.737511,170.976120 
	C128.460068,178.164230 127.738411,185.386475 129.000000,192.500000 
"/>
<path fill="none" opacity="1.000000" stroke="#000000" stroke-linecap="round" stroke-linejoin="round" stroke-width="3.000000"
	d="
M128.500000,278.500000 
	C142.166672,278.833344 155.831863,279.265656 169.500473,279.468262 
	C180.183456,279.626648 180.863937,278.969666 180.968796,268.499695 
	C181.098984,255.500992 181.064880,242.499588 180.982407,229.500107 
	C180.893570,215.499619 180.580948,201.500092 180.566605,187.499939 
	C180.563446,184.405991 179.180862,182.833298 176.494781,182.549454 
	C166.194763,181.461121 155.970230,179.713089 145.475845,181.344620 
	C140.299347,182.149399 134.854691,181.232391 130.000000,184.000000 
"/>
<path fill="none" opacity="1.000000" stroke="#000000" stroke-linecap="round" stroke-linejoin="round" stroke-width="4.000000"
	d="
M50.750000,259.000000 
	C49.830811,256.664398 52.184666,256.525146 52.988060,256.611328 
	C58.062294,257.155548 62.956390,254.441055 67.979057,255.825943 
	C69.197327,256.161835 70.171387,255.831741 70.971901,255.442245 
	C79.037613,251.517731 85.640671,255.049408 91.981949,259.525574 
	C98.328865,264.005707 104.028549,269.400696 111.001625,272.996857 
	C116.192116,275.673706 121.492104,278.009399 128.000000,277.511658 
	C128.000000,295.500153 127.870461,313.001495 128.062271,330.499329 
	C128.141617,337.736603 131.677994,341.538116 138.997269,341.376495 
	C154.363052,341.037201 169.668854,343.293915 184.989685,342.335175 
	C190.658920,341.980377 196.368195,341.051910 201.988907,341.611450 
	C212.159576,342.623962 222.323868,342.455475 232.500000,342.500000 
"/>
<path fill="none" opacity="1.000000" stroke="#000000" stroke-linecap="round" stroke-linejoin="round" stroke-width="4.000000"
	d="
M43.000000,253.500000 
	C44.927658,252.056549 47.031040,251.457764 49.499981,251.456757 
	C69.665573,251.448532 83.278572,240.968369 91.284477,223.401779 
	C95.280029,214.634750 97.452400,205.172165 94.384674,194.885284 
	C93.188133,190.872955 94.131248,185.668671 93.543907,180.994476 
	C92.394417,171.846588 91.675705,162.643036 90.446388,153.507217 
	C89.395630,145.698441 82.971375,139.687714 74.998894,139.593231 
	C61.478828,139.432999 47.905407,138.683182 34.490845,141.455688 
	C30.395514,142.302124 27.481541,143.565521 26.903660,148.488693 
	C25.725433,158.526459 24.009541,168.501450 22.497295,178.499588 
	C21.009699,188.334793 19.082230,198.125015 18.096735,208.009644 
	C16.572521,223.297684 16.554111,238.384109 29.981998,249.521698 
	C31.784231,251.016525 33.499702,252.059052 36.009201,251.544922 
	C38.878532,250.957077 41.633709,252.358719 43.362339,254.134033 
	C45.485062,256.314087 47.950119,256.766418 50.500000,257.500000 
"/>
<path fill="none" opacity="1.000000" stroke="#000000" stroke-linecap="round" stroke-linejoin="round" stroke-width="4.000000"
	d="
M84.500000,144.000000 
	C77.698074,144.929276 70.823196,144.761780 63.986446,145.339615 
	C55.165020,146.085190 46.300621,146.464417 37.507587,147.560837 
	C34.901478,147.885788 32.138603,148.443878 30.089626,151.049438 
	C33.484158,156.022293 38.855412,156.067535 43.509167,156.347733 
	C55.255112,157.054977 66.988846,156.493317 78.513870,153.554382 
	C82.041573,152.654785 84.821030,150.474030 88.000000,149.000000 
"/>
<path fill="none" opacity="1.000000" stroke="#000000" stroke-linecap="round" stroke-linejoin="round" stroke-width="4.000000"
	d="
M58.000000,343.000000 
	C53.949341,336.595673 49.734184,335.290314 42.469913,337.396210 
	C39.539101,338.245880 37.007973,338.811890 37.535313,342.494934 
	C38.018444,345.869263 40.520508,347.952698 43.514893,348.400360 
	C54.477283,350.039154 65.520546,350.339508 76.487923,348.430603 
	C79.939850,347.829773 83.171593,346.200043 83.458870,341.997192 
	C83.672333,338.874268 80.213539,336.404572 76.020515,335.413208 
	C71.296028,334.296143 67.010086,336.302856 62.500000,336.500000 
"/>
<path fill="none" opacity="1.000000" stroke="#000000" stroke-linecap="round" stroke-linejoin="round" stroke-width="3.000000"
	d="
M130.000000,193.500000 
	C135.647827,212.075272 145.632492,228.664719 153.942596,246.027481 
	C158.928223,256.444244 163.028198,267.224213 163.500000,279.000000 
"/>
<path fill="none" opacity="1.000000" stroke="#000000" stroke-linecap="round" stroke-linejoin="round" stroke-width="4.000000"
	d="
M130.000000,192.750000 
	C127.516220,194.925262 127.502632,194.925262 127.502159,198.000000 
	C127.498314,222.666672 127.506912,247.333328 127.485985,272.000000 
	C127.484428,273.838715 127.843361,275.728180 127.000000,277.500000 
"/>
<path fill="none" opacity="1.000000" stroke="#000000" stroke-linecap="round" stroke-linejoin="round" stroke-width="4.000000"
	d="
M68.500000,256.500000 
	C68.131989,258.431763 66.374542,259.327576 64.995178,259.385834 
	C60.671188,259.568451 60.419132,262.066406 60.444473,265.500397 
	C60.567463,282.166168 60.401226,298.834198 60.545448,315.499603 
	C60.608932,322.835297 61.166664,330.166656 61.500000,337.500000 
"/>
<path fill="none" opacity="1.000000" stroke="#000000" stroke-linecap="round" stroke-linejoin="round" stroke-width="4.000000"
	d="
M53.999996,337.000000 
	C54.499996,326.500000 55.239021,316.004578 55.439556,305.498840 
	C55.690788,292.336975 55.345387,279.163635 55.602688,266.002014 
	C55.671806,262.466431 54.667480,260.285248 51.500000,259.000000 
"/>
<path fill="none" opacity="1.000000" stroke="#000000" stroke-linecap="round" stroke-linejoin="round" stroke-width="3.000000"
	d="
M93.500000,194.500000 
	C87.032356,193.533249 81.693687,197.126282 76.042725,199.121033 
	C69.725311,201.351044 63.504791,203.870911 56.992165,205.468048 
	C48.524235,207.544739 40.070644,207.144913 31.469473,205.679138 
	C27.320091,204.972031 23.150164,204.269806 19.000000,203.500000 
"/>
<path fill="none" opacity="1.000000" stroke="#000000" stroke-linecap="round" stroke-linejoin="round" stroke-width="3.000000"
	d="
M163.500000,280.000000 
	C163.208008,285.502502 163.101334,291.007599 162.727966,296.515442 
	C161.651001,312.402588 166.499603,329.967590 184.455307,337.605072 
	C186.202606,338.348267 188.441254,338.964874 189.500000,341.000000 
"/>
<path fill="none" opacity="1.000000" stroke="#000000" stroke-linecap="round" stroke-linejoin="round" stroke-width="3.000000"
	d="
M97.000000,208.500000 
	C99.669296,213.858429 98.384392,219.444733 98.019218,225.001266 
	C97.236061,236.917953 91.097824,245.499374 81.522881,252.033524 
	C81.176369,252.269989 81.166664,253.000000 81.000000,253.500000 
"/>
<path fill="none" opacity="1.000000" stroke="#000000" stroke-linecap="round" stroke-linejoin="round" stroke-width="4.000000"
	d="
M1.499999,201.000015 
	C6.999999,201.833344 12.499999,202.666672 17.999998,203.500015 
"/>
<path fill="none" opacity="1.000000" stroke="#000000" stroke-linecap="round" stroke-linejoin="round" stroke-width="4.000000"
	d="
M29.500000,240.500000 
	C28.943035,243.430191 31.613987,244.341736 33.040398,245.964493 
	C34.518986,247.646622 36.922428,248.503143 37.500000,251.000000 
"/>
</svg>